<svg width="73" height="73" viewBox="0 0 73 73" fill="none" xmlns="http://www.w3.org/2000/svg">
<path d="M29.7998 5.66205C31.4128 -1.47867 41.5872 -1.47867 43.2002 5.66204V5.66204C44.2456 10.29 49.5564 12.4898 53.568 9.95652V9.95652C59.7578 6.04782 66.9522 13.2422 63.0435 19.432V19.432C60.5103 23.4436 62.7101 28.7544 67.338 29.7998V29.7998C74.4787 31.4128 74.4787 41.5872 67.338 43.2002V43.2002C62.71 44.2456 60.5103 49.5564 63.0435 53.568V53.568C66.9522 59.7578 59.7578 66.9522 53.568 63.0435V63.0435C49.5564 60.5103 44.2456 62.7101 43.2002 67.338V67.338C41.5872 74.4787 31.4128 74.4787 29.7998 67.338V67.338C28.7544 62.71 23.4436 60.5103 19.432 63.0435V63.0435C13.2422 66.9522 6.04782 59.7578 9.95652 53.568V53.568C12.4898 49.5564 10.29 44.2456 5.66204 43.2002V43.2002C-1.47867 41.5872 -1.47867 31.4128 5.66205 29.7998V29.7998C10.29 28.7544 12.4898 23.4436 9.95652 19.432V19.432C6.04782 13.2422 13.2422 6.04782 19.432 9.95652V9.95652C23.4436 12.4897 28.7544 10.29 29.7998 5.66205V5.66205Z" fill="#D9D9D9"/>
</svg>
